<?xml version="1.0" encoding="UTF-8"?>
<svg xmlns="http://www.w3.org/2000/svg" xmlns:xlink="http://www.w3.org/1999/xlink" width="92px" height="50px" viewBox="0 0 91 50" version="1.1">
<defs>
<linearGradient id="linear0" gradientUnits="userSpaceOnUse" x1="29.17" y1="117.78" x2="184.64" y2="117.78" gradientTransform="matrix(0.14502,0,0,0.146315,0,0.0166585)">
<stop offset="0" style="stop-color:rgb(94.509804%,37.254902%,14.117647%);stop-opacity:1;"/>
<stop offset="1" style="stop-color:rgb(93.333333%,11.764706%,28.235294%);stop-opacity:1;"/>
</linearGradient>
<linearGradient id="linear1" gradientUnits="userSpaceOnUse" x1="29.17" y1="117.78" x2="184.64" y2="117.78" gradientTransform="matrix(0.14502,0,0,0.146315,0,0.0166585)">
<stop offset="0" style="stop-color:rgb(94.509804%,37.254902%,14.117647%);stop-opacity:1;"/>
<stop offset="1" style="stop-color:rgb(93.333333%,11.764706%,28.235294%);stop-opacity:1;"/>
</linearGradient>
</defs>
<g id="surface1">
<path style=" stroke:none;fill-rule:evenodd;fill:rgb(22.352941%,31.372549%,63.529412%);fill-opacity:1;" d="M 39.996094 24.785156 L 39.996094 24.324219 C 39.601562 24.835938 39.148438 25.296875 38.644531 25.699219 C 38.179688 26.066406 37.65625 26.347656 37.09375 26.527344 C 36.472656 26.71875 35.828125 26.808594 35.179688 26.800781 C 34.371094 26.8125 33.570312 26.625 32.847656 26.257812 C 32.1875 25.917969 31.636719 25.398438 31.253906 24.761719 C 30.808594 23.992188 30.585938 22.886719 30.585938 21.449219 L 30.585938 14.28125 C 30.585938 13.558594 30.746094 13.015625 31.070312 12.660156 C 31.398438 12.296875 31.871094 12.101562 32.355469 12.121094 C 32.847656 12.105469 33.324219 12.300781 33.660156 12.664062 C 33.992188 13.027344 34.160156 13.566406 34.160156 14.273438 L 34.160156 20.0625 C 34.148438 20.773438 34.21875 21.480469 34.371094 22.171875 C 34.480469 22.6875 34.742188 23.15625 35.125 23.511719 C 35.492188 23.84375 35.988281 24.011719 36.609375 24.011719 C 37.21875 24.011719 37.816406 23.820312 38.316406 23.46875 C 38.835938 23.125 39.242188 22.628906 39.484375 22.050781 C 39.6875 21.539062 39.789062 20.417969 39.785156 18.6875 L 39.785156 14.296875 C 39.785156 13.582031 39.953125 13.042969 40.285156 12.6875 C 40.621094 12.324219 41.097656 12.125 41.589844 12.144531 C 42.078125 12.125 42.546875 12.320312 42.875 12.683594 C 43.199219 13.027344 43.359375 13.558594 43.359375 14.285156 L 43.359375 24.761719 C 43.359375 25.441406 43.207031 25.960938 42.894531 26.308594 C 42.578125 26.644531 42.140625 26.828125 41.683594 26.824219 C 41.226562 26.820312 40.789062 26.628906 40.480469 26.289062 C 40.15625 25.933594 39.996094 25.429688 39.996094 24.785156 Z M 39.996094 24.785156 "/>
<path style=" stroke:none;fill-rule:evenodd;fill:rgb(22.352941%,31.372549%,63.529412%);fill-opacity:1;" d="M 49.320312 14.125 L 49.320312 14.566406 C 49.863281 13.800781 50.570312 13.171875 51.386719 12.71875 C 52.1875 12.316406 53.074219 12.113281 53.964844 12.132812 C 54.847656 12.113281 55.722656 12.328125 56.5 12.746094 C 57.222656 13.140625 57.808594 13.753906 58.167969 14.5 C 58.40625 14.945312 58.558594 15.433594 58.625 15.933594 C 58.703125 16.582031 58.738281 17.238281 58.730469 17.890625 L 58.730469 24.621094 C 58.730469 25.347656 58.566406 25.894531 58.238281 26.265625 C 57.902344 26.621094 57.4375 26.824219 56.945312 26.820312 C 56.457031 26.820312 55.992188 26.613281 55.660156 26.253906 C 55.328125 25.871094 55.160156 25.328125 55.160156 24.621094 L 55.160156 18.597656 C 55.160156 17.40625 54.996094 16.496094 54.667969 15.863281 C 54.339844 15.234375 53.683594 14.917969 52.707031 14.917969 C 52.078125 14.914062 51.46875 15.117188 50.964844 15.492188 C 50.429688 15.890625 50.023438 16.441406 49.804688 17.074219 C 49.628906 17.613281 49.542969 18.621094 49.542969 20.09375 L 49.542969 24.625 C 49.542969 25.359375 49.375 25.910156 49.035156 26.277344 C 48.703125 26.640625 48.226562 26.84375 47.730469 26.824219 C 47.246094 26.839844 46.777344 26.628906 46.457031 26.257812 C 46.125 25.875 45.960938 25.332031 45.960938 24.625 L 45.960938 14.179688 C 45.960938 13.488281 46.109375 12.972656 46.40625 12.636719 C 46.71875 12.289062 47.164062 12.101562 47.625 12.125 C 47.925781 12.121094 48.222656 12.199219 48.480469 12.351562 C 48.742188 12.511719 48.957031 12.746094 49.089844 13.027344 C 49.253906 13.367188 49.332031 13.746094 49.320312 14.125 Z M 49.320312 14.125 "/>
<path style=" stroke:none;fill-rule:evenodd;fill:rgb(22.352941%,31.372549%,63.529412%);fill-opacity:1;" d="M 63.039062 12.113281 L 63.441406 12.113281 L 63.441406 9.894531 C 63.441406 9.296875 63.460938 8.828125 63.488281 8.488281 C 63.511719 8.179688 63.601562 7.882812 63.753906 7.613281 C 63.898438 7.355469 64.113281 7.140625 64.367188 6.996094 C 64.640625 6.835938 64.953125 6.753906 65.269531 6.757812 C 65.742188 6.761719 66.195312 6.953125 66.53125 7.285156 C 66.777344 7.515625 66.945312 7.816406 67.007812 8.148438 C 67.085938 8.625 67.117188 9.105469 67.109375 9.589844 L 67.109375 12.113281 L 68.449219 12.113281 C 68.96875 12.113281 69.363281 12.238281 69.636719 12.488281 C 69.90625 12.730469 70.054688 13.078125 70.042969 13.441406 C 70.042969 13.9375 69.851562 14.285156 69.464844 14.484375 C 69.074219 14.683594 68.515625 14.777344 67.792969 14.777344 L 67.109375 14.777344 L 67.109375 21.582031 C 67.101562 22.027344 67.121094 22.476562 67.167969 22.917969 C 67.195312 23.199219 67.308594 23.464844 67.492188 23.675781 C 67.664062 23.871094 67.949219 23.96875 68.34375 23.96875 C 68.636719 23.957031 68.929688 23.921875 69.214844 23.855469 C 69.496094 23.789062 69.78125 23.75 70.070312 23.738281 C 70.375 23.742188 70.664062 23.871094 70.871094 24.097656 C 71.105469 24.332031 71.234375 24.652344 71.226562 24.984375 C 71.226562 25.582031 70.90625 26.039062 70.261719 26.351562 C 69.617188 26.667969 68.691406 26.828125 67.480469 26.828125 C 66.335938 26.828125 65.464844 26.632812 64.871094 26.242188 C 64.296875 25.875 63.882812 25.296875 63.710938 24.632812 C 63.527344 23.949219 63.4375 23.035156 63.4375 21.882812 L 63.4375 14.78125 L 62.953125 14.78125 C 62.425781 14.78125 62.019531 14.65625 61.742188 14.402344 C 61.46875 14.160156 61.316406 13.808594 61.328125 13.441406 C 61.316406 13.074219 61.480469 12.71875 61.761719 12.488281 C 62.0625 12.238281 62.488281 12.113281 63.039062 12.113281 Z M 63.039062 12.113281 "/>
<path style=" stroke:none;fill-rule:evenodd;fill:rgb(22.352941%,31.372549%,63.529412%);fill-opacity:1;" d="M 84.503906 19.476562 C 84.503906 18.003906 84.183594 16.855469 83.539062 16.035156 C 82.894531 15.210938 82.03125 14.800781 80.945312 14.792969 C 80.289062 14.78125 79.640625 14.972656 79.09375 15.34375 C 78.53125 15.75 78.101562 16.3125 77.859375 16.96875 C 77.558594 17.765625 77.410156 18.613281 77.425781 19.46875 C 77.410156 20.316406 77.554688 21.15625 77.851562 21.945312 C 78.09375 22.597656 78.519531 23.164062 79.074219 23.574219 C 79.625 23.953125 80.277344 24.152344 80.945312 24.136719 C 82.03125 24.136719 82.894531 23.722656 83.539062 22.898438 C 84.183594 22.070312 84.503906 20.933594 84.503906 19.476562 Z M 88.097656 19.476562 C 88.109375 20.492188 87.941406 21.5 87.601562 22.457031 C 87.289062 23.332031 86.792969 24.128906 86.152344 24.796875 C 85.515625 25.457031 84.746094 25.96875 83.894531 26.300781 C 82.949219 26.664062 81.949219 26.839844 80.941406 26.824219 C 79.941406 26.839844 78.953125 26.660156 78.019531 26.296875 C 76.300781 25.605469 74.953125 24.207031 74.324219 22.449219 C 73.988281 21.496094 73.820312 20.488281 73.832031 19.476562 C 73.820312 18.453125 73.988281 17.433594 74.328125 16.472656 C 74.636719 15.601562 75.125 14.804688 75.761719 14.140625 C 76.398438 13.484375 77.167969 12.976562 78.019531 12.648438 C 79.917969 11.945312 82.003906 11.945312 83.902344 12.648438 C 85.636719 13.320312 86.992188 14.722656 87.609375 16.488281 C 87.949219 17.449219 88.113281 18.460938 88.097656 19.476562 Z M 88.097656 19.476562 "/>
<path style=" stroke:none;fill-rule:evenodd;fill:rgb(22.352941%,31.372549%,63.529412%);fill-opacity:1;" d="M 39.636719 35.613281 C 39.65625 34.886719 39.527344 34.160156 39.261719 33.480469 C 39.046875 32.933594 38.6875 32.457031 38.21875 32.109375 C 37.785156 31.792969 37.269531 31.625 36.738281 31.628906 C 35.894531 31.621094 35.097656 31.996094 34.5625 32.652344 C 33.972656 33.335938 33.679688 34.34375 33.679688 35.671875 C 33.679688 36.921875 33.972656 37.894531 34.558594 38.589844 C 35.085938 39.257812 35.886719 39.640625 36.730469 39.632812 C 37.246094 39.636719 37.75 39.476562 38.171875 39.179688 C 38.644531 38.835938 39.011719 38.363281 39.230469 37.8125 C 39.515625 37.117188 39.652344 36.371094 39.632812 35.621094 Z M 33.53125 31.042969 L 33.53125 31.421875 C 34.027344 30.769531 34.648438 30.222656 35.355469 29.8125 C 36.019531 29.464844 36.757812 29.289062 37.503906 29.300781 C 38.4375 29.292969 39.355469 29.554688 40.152344 30.050781 C 40.984375 30.578125 41.648438 31.34375 42.066406 32.242188 C 42.53125 33.203125 42.765625 34.339844 42.765625 35.652344 C 42.777344 36.558594 42.640625 37.460938 42.363281 38.320312 C 42.125 39.066406 41.746094 39.757812 41.246094 40.359375 C 40.789062 40.898438 40.214844 41.332031 39.574219 41.625 C 38.921875 41.921875 38.21875 42.070312 37.503906 42.066406 C 36.613281 42.066406 35.867188 41.882812 35.261719 41.523438 C 34.59375 41.105469 34.003906 40.566406 33.53125 39.933594 L 33.53125 44.65625 C 33.53125 46.039062 33.03125 46.730469 32.035156 46.730469 C 31.449219 46.730469 31.058594 46.550781 30.875 46.195312 C 30.6875 45.839844 30.585938 45.316406 30.585938 44.636719 L 30.585938 31.066406 C 30.585938 30.464844 30.714844 30.019531 30.972656 29.722656 C 31.246094 29.425781 31.632812 29.265625 32.035156 29.285156 C 32.441406 29.273438 32.835938 29.4375 33.113281 29.742188 C 33.390625 30.042969 33.53125 30.476562 33.53125 31.042969 Z M 33.53125 31.042969 "/>
<path style=" stroke:none;fill-rule:evenodd;fill:rgb(22.352941%,31.372549%,63.529412%);fill-opacity:1;" d="M 53.699219 35.832031 C 53.039062 36.058594 52.367188 36.238281 51.6875 36.375 C 50.804688 36.566406 50.195312 36.703125 49.859375 36.792969 C 49.5 36.894531 49.167969 37.070312 48.890625 37.316406 C 48.578125 37.589844 48.40625 37.988281 48.429688 38.40625 C 48.421875 38.875 48.621094 39.324219 48.96875 39.632812 C 49.359375 39.980469 49.867188 40.164062 50.386719 40.140625 C 50.988281 40.144531 51.582031 40.003906 52.113281 39.726562 C 52.597656 39.492188 53 39.125 53.273438 38.660156 C 53.558594 38.179688 53.699219 37.386719 53.699219 36.285156 Z M 53.910156 40.429688 C 53.234375 40.976562 52.492188 41.425781 51.699219 41.773438 C 50.9375 42.082031 50.125 42.234375 49.304688 42.222656 C 48.566406 42.238281 47.835938 42.074219 47.175781 41.738281 C 46.59375 41.441406 46.105469 40.988281 45.765625 40.421875 C 45.4375 39.886719 45.265625 39.273438 45.269531 38.644531 C 45.25 37.824219 45.542969 37.03125 46.085938 36.421875 C 46.632812 35.808594 47.382812 35.398438 48.335938 35.1875 C 48.535156 35.140625 49.03125 35.035156 49.824219 34.875 C 50.617188 34.710938 51.292969 34.5625 51.855469 34.425781 C 52.421875 34.289062 53.035156 34.121094 53.695312 33.929688 C 53.65625 33.09375 53.488281 32.476562 53.191406 32.085938 C 52.894531 31.691406 52.28125 31.496094 51.351562 31.5 C 50.550781 31.5 49.949219 31.613281 49.546875 31.835938 C 49.125 32.082031 48.765625 32.429688 48.507812 32.847656 C 48.320312 33.15625 48.117188 33.453125 47.898438 33.738281 C 47.777344 33.882812 47.523438 33.953125 47.128906 33.953125 C 46.792969 33.960938 46.464844 33.839844 46.214844 33.613281 C 45.960938 33.394531 45.816406 33.070312 45.828125 32.734375 C 45.839844 32.140625 46.046875 31.566406 46.414062 31.105469 C 46.808594 30.578125 47.417969 30.144531 48.25 29.800781 C 49.078125 29.460938 50.113281 29.289062 51.351562 29.289062 C 52.738281 29.289062 53.824219 29.453125 54.617188 29.785156 C 55.359375 30.066406 55.960938 30.625 56.296875 31.347656 C 56.621094 32.0625 56.785156 33.007812 56.785156 34.1875 C 56.785156 34.933594 56.785156 35.566406 56.785156 36.089844 C 56.785156 36.609375 56.777344 37.191406 56.769531 37.824219 C 56.773438 38.457031 56.871094 39.089844 57.058594 39.691406 C 57.253906 40.339844 57.347656 40.757812 57.347656 40.945312 C 57.339844 41.292969 57.171875 41.621094 56.894531 41.835938 C 56.613281 42.09375 56.242188 42.238281 55.863281 42.234375 C 55.539062 42.234375 55.21875 42.082031 54.90625 41.777344 C 54.519531 41.371094 54.183594 40.917969 53.910156 40.429688 Z M 53.910156 40.429688 "/>
<path style=" stroke:none;fill-rule:evenodd;fill:rgb(22.352941%,31.372549%,63.529412%);fill-opacity:1;" d="M 63.03125 35.546875 C 63.03125 36.8125 63.304688 37.773438 63.855469 38.425781 C 64.378906 39.0625 65.164062 39.421875 65.988281 39.398438 C 66.503906 39.398438 67.007812 39.253906 67.449219 38.980469 C 67.933594 38.675781 68.320312 38.238281 68.566406 37.71875 C 68.875 37.082031 69.023438 36.378906 69.003906 35.671875 C 69.003906 34.394531 68.726562 33.398438 68.167969 32.6875 C 67.648438 31.992188 66.828125 31.597656 65.964844 31.621094 C 65.132812 31.597656 64.335938 31.976562 63.832031 32.644531 C 63.296875 33.328125 63.027344 34.296875 63.03125 35.546875 Z M 72.019531 31.574219 L 72.019531 40.671875 C 72.039062 41.578125 71.925781 42.484375 71.691406 43.359375 C 71.5 44.058594 71.136719 44.699219 70.632812 45.21875 C 70.101562 45.734375 69.449219 46.109375 68.738281 46.308594 C 67.957031 46.546875 66.980469 46.664062 65.8125 46.664062 C 64.835938 46.679688 63.867188 46.527344 62.945312 46.210938 C 62.101562 45.90625 61.457031 45.515625 61 45.039062 C 60.546875 44.5625 60.316406 44.070312 60.316406 43.566406 C 60.304688 43.210938 60.449219 42.871094 60.707031 42.628906 C 60.957031 42.390625 61.292969 42.261719 61.636719 42.269531 C 62.105469 42.277344 62.546875 42.5 62.832031 42.875 C 63 43.082031 63.171875 43.292969 63.347656 43.5 C 63.523438 43.707031 63.722656 43.886719 63.941406 44.042969 C 64.175781 44.199219 64.441406 44.3125 64.71875 44.375 C 65.0625 44.449219 65.414062 44.488281 65.765625 44.484375 C 66.570312 44.484375 67.191406 44.371094 67.636719 44.144531 C 68.046875 43.953125 68.378906 43.617188 68.566406 43.199219 C 68.75 42.785156 68.855469 42.34375 68.882812 41.894531 C 68.910156 41.433594 68.933594 40.6875 68.949219 39.664062 C 68.515625 40.296875 67.949219 40.820312 67.289062 41.203125 C 66.601562 41.570312 65.832031 41.75 65.054688 41.730469 C 64.085938 41.75 63.136719 41.46875 62.332031 40.925781 C 61.53125 40.367188 60.910156 39.585938 60.539062 38.675781 C 60.105469 37.621094 59.890625 36.484375 59.914062 35.339844 C 59.902344 34.472656 60.03125 33.613281 60.296875 32.792969 C 60.519531 32.082031 60.890625 31.429688 61.382812 30.875 C 61.832031 30.371094 62.386719 29.96875 63.007812 29.703125 C 63.648438 29.433594 64.335938 29.300781 65.03125 29.308594 C 65.824219 29.289062 66.609375 29.464844 67.316406 29.816406 C 68.023438 30.214844 68.636719 30.757812 69.113281 31.417969 L 69.113281 30.996094 C 69.113281 30.453125 69.246094 30.03125 69.511719 29.730469 C 69.769531 29.433594 70.144531 29.269531 70.535156 29.285156 C 71.132812 29.285156 71.53125 29.480469 71.730469 29.871094 C 71.925781 30.257812 72.027344 30.828125 72.027344 31.574219 Z M 72.019531 31.574219 "/>
<path style=" stroke:none;fill-rule:evenodd;fill:rgb(22.352941%,31.372549%,63.529412%);fill-opacity:1;" d="M 84.675781 36.28125 C 84.675781 34.875 84.367188 33.785156 83.753906 33.003906 C 83.140625 32.21875 82.320312 31.832031 81.289062 31.832031 C 80.660156 31.816406 80.042969 32 79.523438 32.351562 C 78.984375 32.738281 78.578125 33.273438 78.347656 33.898438 C 78.058594 34.65625 77.917969 35.46875 77.933594 36.28125 C 77.917969 37.085938 78.054688 37.886719 78.339844 38.640625 C 78.570312 39.257812 78.972656 39.796875 79.5 40.1875 C 80.023438 40.550781 80.648438 40.734375 81.28125 40.722656 C 82.316406 40.722656 83.136719 40.328125 83.746094 39.542969 C 84.359375 38.757812 84.664062 37.667969 84.667969 36.28125 Z M 88.097656 36.28125 C 88.109375 37.25 87.949219 38.210938 87.625 39.121094 C 87.328125 39.953125 86.859375 40.714844 86.25 41.351562 C 85.640625 41.980469 84.910156 42.464844 84.097656 42.78125 C 83.199219 43.128906 82.246094 43.296875 81.285156 43.28125 C 80.332031 43.296875 79.386719 43.125 78.496094 42.777344 C 76.859375 42.125 75.578125 40.792969 74.976562 39.121094 C 74.65625 38.210938 74.496094 37.25 74.511719 36.285156 C 74.5 35.3125 74.660156 34.34375 74.984375 33.421875 C 75.277344 32.59375 75.742188 31.839844 76.347656 31.203125 C 76.953125 30.578125 77.6875 30.09375 78.496094 29.785156 C 80.304688 29.117188 82.289062 29.117188 84.097656 29.785156 C 84.914062 30.101562 85.648438 30.59375 86.261719 31.222656 C 86.867188 31.855469 87.335938 32.613281 87.632812 33.441406 C 87.953125 34.351562 88.109375 35.3125 88.097656 36.28125 Z M 88.097656 36.28125 "/>
<path style=" stroke:none;fill-rule:evenodd;fill:rgb(22.352941%,31.372549%,63.529412%);fill-opacity:1;" d="M 20.34375 33.773438 C 20.335938 34.015625 20.378906 34.257812 20.472656 34.480469 C 20.542969 34.660156 20.664062 34.8125 20.820312 34.921875 C 20.964844 35.015625 21.136719 35.066406 21.308594 35.066406 C 21.480469 35.066406 21.652344 35.015625 21.796875 34.921875 C 21.953125 34.816406 22.074219 34.664062 22.148438 34.488281 C 22.242188 34.261719 22.289062 34.015625 22.28125 33.765625 C 22.285156 33.523438 22.242188 33.285156 22.148438 33.0625 C 22.074219 32.882812 21.949219 32.726562 21.792969 32.613281 C 21.648438 32.511719 21.476562 32.457031 21.300781 32.457031 C 21.121094 32.457031 20.949219 32.511719 20.804688 32.617188 C 20.648438 32.734375 20.53125 32.894531 20.464844 33.074219 C 20.378906 33.296875 20.339844 33.53125 20.34375 33.765625 Z M 22.332031 35.277344 L 22.332031 35.175781 C 22.210938 35.320312 22.078125 35.449219 21.929688 35.5625 C 21.796875 35.660156 21.652344 35.734375 21.496094 35.785156 C 21.332031 35.839844 21.160156 35.863281 20.988281 35.863281 C 20.753906 35.863281 20.523438 35.8125 20.316406 35.707031 C 20.105469 35.601562 19.921875 35.453125 19.777344 35.269531 C 19.625 35.066406 19.507812 34.835938 19.4375 34.589844 C 19.355469 34.316406 19.316406 34.03125 19.320312 33.75 C 19.320312 33.109375 19.472656 32.609375 19.78125 32.253906 C 20.085938 31.898438 20.535156 31.699219 21.003906 31.71875 C 21.257812 31.707031 21.511719 31.757812 21.742188 31.863281 C 21.960938 31.984375 22.160156 32.140625 22.324219 32.332031 L 22.324219 30.820312 C 22.3125 30.652344 22.355469 30.484375 22.449219 30.34375 C 22.53125 30.234375 22.664062 30.175781 22.800781 30.183594 C 22.933594 30.175781 23.066406 30.230469 23.15625 30.332031 C 23.246094 30.457031 23.292969 30.613281 23.28125 30.769531 L 23.28125 35.277344 C 23.292969 35.4375 23.246094 35.59375 23.148438 35.71875 C 23.058594 35.8125 22.933594 35.867188 22.800781 35.867188 C 22.671875 35.867188 22.546875 35.8125 22.457031 35.71875 C 22.363281 35.59375 22.316406 35.4375 22.332031 35.277344 Z M 22.332031 35.277344 "/>
<path style=" stroke:none;fill-rule:evenodd;fill:rgb(22.352941%,31.372549%,63.529412%);fill-opacity:1;" d="M 25.15625 33.453125 L 26.992188 33.453125 C 26.992188 33.164062 26.894531 32.886719 26.710938 32.667969 C 26.546875 32.492188 26.3125 32.398438 26.074219 32.40625 C 25.835938 32.402344 25.609375 32.496094 25.449219 32.671875 C 25.273438 32.894531 25.171875 33.167969 25.160156 33.453125 Z M 27.136719 34.039062 L 25.15625 34.039062 C 25.15625 34.25 25.207031 34.460938 25.300781 34.652344 C 25.457031 34.984375 25.792969 35.195312 26.15625 35.1875 C 26.269531 35.1875 26.382812 35.175781 26.488281 35.144531 C 26.59375 35.113281 26.691406 35.070312 26.78125 35.007812 C 26.871094 34.949219 26.957031 34.886719 27.039062 34.8125 C 27.117188 34.742188 27.21875 34.648438 27.347656 34.527344 C 27.410156 34.480469 27.488281 34.457031 27.570312 34.460938 C 27.660156 34.457031 27.75 34.488281 27.820312 34.546875 C 27.886719 34.609375 27.921875 34.699219 27.917969 34.792969 C 27.910156 34.90625 27.875 35.019531 27.808594 35.113281 C 27.726562 35.253906 27.613281 35.375 27.484375 35.46875 C 27.320312 35.59375 27.136719 35.691406 26.941406 35.753906 C 26.695312 35.832031 26.441406 35.871094 26.183594 35.867188 C 25.535156 35.867188 25.023438 35.679688 24.667969 35.304688 C 24.308594 34.929688 24.125 34.425781 24.125 33.78125 C 24.125 33.496094 24.167969 33.210938 24.257812 32.9375 C 24.339844 32.691406 24.472656 32.464844 24.648438 32.273438 C 24.824219 32.085938 25.039062 31.941406 25.28125 31.847656 C 25.546875 31.75 25.828125 31.699219 26.109375 31.703125 C 26.464844 31.691406 26.816406 31.78125 27.125 31.957031 C 27.394531 32.109375 27.617188 32.335938 27.761719 32.609375 C 27.898438 32.859375 27.972656 33.140625 27.972656 33.425781 C 27.972656 33.683594 27.902344 33.847656 27.753906 33.925781 C 27.558594 34.007812 27.347656 34.046875 27.136719 34.03125 Z M 27.136719 34.039062 "/>
<path style=" stroke:none;fill-rule:evenodd;fill:url(#linear0);" d="M 11.617188 1.945312 C 4.695312 4.320312 2.175781 11.429688 3.660156 17.0625 C 4.019531 18.449219 4.648438 19.75 5.511719 20.886719 L 5.585938 20.980469 C 5.59375 20.992188 5.601562 21 5.609375 21.011719 L 5.785156 21.230469 L 5.839844 21.300781 C 7.761719 23.542969 9.585938 25.863281 11.398438 28.195312 L 11.5 28.324219 C 11.917969 28.832031 12.316406 29.359375 12.710938 29.886719 C 12.722656 29.90625 12.738281 29.921875 12.75 29.9375 C 13.242188 30.566406 13.726562 31.191406 14.222656 31.816406 L 15.382812 33.070312 L 15.550781 33.234375 C 17 31.011719 17.144531 29.660156 16.011719 27.855469 C 15.867188 27.617188 15.691406 27.375 15.5 27.113281 C 14.074219 25.226562 12.65625 23.335938 11.242188 21.441406 C 10.40625 20.386719 9.570312 19.332031 8.746094 18.273438 C 8.445312 17.898438 8.183594 17.492188 7.964844 17.0625 C 7.890625 16.910156 7.820312 16.757812 7.761719 16.601562 C 6.988281 14.519531 7.070312 12.210938 7.996094 10.191406 C 8.917969 8.171875 10.605469 6.609375 12.679688 5.859375 C 17.027344 4.234375 21.855469 6.464844 23.480469 10.84375 C 25.039062 15.085938 22.847656 19.871094 18.621094 21.574219 C 17.75 21.921875 17.367188 21.703125 17.113281 20.851562 C 17.449219 20.730469 17.710938 20.636719 17.964844 20.542969 C 21.046875 19.371094 22.910156 16.613281 22.773438 13.40625 C 22.644531 10.359375 20.550781 7.71875 17.574219 6.851562 C 14.625 6.011719 11.476562 7.148438 9.726562 9.683594 C 7.945312 12.285156 8.0625 15.714844 10.09375 18.304688 C 12.160156 20.941406 14.3125 23.515625 16.363281 26.167969 C 16.945312 26.914062 17.5 27.066406 18.242188 26.605469 C 20.015625 25.519531 21.902344 24.566406 23.503906 23.257812 C 28.132812 19.480469 29.304688 12.8125 26.402344 7.671875 C 24.109375 3.605469 19.992188 1.265625 15.640625 1.265625 C 14.273438 1.265625 12.914062 1.496094 11.617188 1.945312 Z M 12.933594 13.757812 C 12.925781 13.050781 13.195312 12.367188 13.683594 11.863281 C 14.175781 11.355469 14.84375 11.066406 15.542969 11.058594 C 16.996094 11.039062 18.203125 12.179688 18.273438 13.644531 C 18.324219 15.039062 17.113281 16.375 15.726562 16.457031 C 15.683594 16.457031 15.640625 16.457031 15.597656 16.457031 C 14.222656 16.457031 12.957031 15.191406 12.933594 13.757812 Z M 12.933594 13.757812 "/>
<path style=" stroke:none;fill-rule:evenodd;fill:url(#linear1);" d="M 11.617188 1.945312 C 4.695312 4.320312 2.175781 11.429688 3.660156 17.0625 C 4.019531 18.449219 4.648438 19.75 5.511719 20.886719 L 5.585938 20.980469 C 5.59375 20.992188 5.601562 21 5.609375 21.011719 L 5.785156 21.230469 L 5.839844 21.300781 C 7.761719 23.542969 9.585938 25.863281 11.398438 28.195312 L 11.5 28.324219 C 11.917969 28.832031 12.316406 29.359375 12.710938 29.886719 C 12.722656 29.90625 12.738281 29.921875 12.75 29.9375 C 13.242188 30.566406 13.726562 31.191406 14.222656 31.816406 L 15.382812 33.070312 L 15.550781 33.234375 C 17 31.011719 17.144531 29.660156 16.011719 27.855469 C 15.867188 27.617188 15.691406 27.375 15.5 27.113281 C 14.074219 25.226562 12.65625 23.335938 11.242188 21.441406 C 10.40625 20.386719 9.570312 19.332031 8.746094 18.273438 C 8.445312 17.898438 8.183594 17.492188 7.964844 17.0625 C 7.890625 16.910156 7.820312 16.757812 7.761719 16.601562 C 6.988281 14.519531 7.070312 12.210938 7.996094 10.191406 C 8.917969 8.171875 10.605469 6.609375 12.679688 5.859375 C 17.027344 4.234375 21.855469 6.464844 23.480469 10.84375 C 25.039062 15.085938 22.847656 19.871094 18.621094 21.574219 C 17.75 21.921875 17.367188 21.703125 17.113281 20.851562 C 17.449219 20.730469 17.710938 20.636719 17.964844 20.542969 C 21.046875 19.371094 22.910156 16.613281 22.773438 13.40625 C 22.644531 10.359375 20.550781 7.71875 17.574219 6.851562 C 14.625 6.011719 11.476562 7.148438 9.726562 9.683594 C 7.945312 12.285156 8.0625 15.714844 10.09375 18.304688 C 12.160156 20.941406 14.3125 23.515625 16.363281 26.167969 C 16.945312 26.914062 17.5 27.066406 18.242188 26.605469 C 20.015625 25.519531 21.902344 24.566406 23.503906 23.257812 C 28.132812 19.480469 29.304688 12.8125 26.402344 7.671875 C 24.109375 3.605469 19.992188 1.265625 15.640625 1.265625 C 14.273438 1.265625 12.914062 1.496094 11.617188 1.945312 Z M 12.933594 13.757812 C 12.925781 13.050781 13.195312 12.367188 13.683594 11.863281 C 14.175781 11.355469 14.84375 11.066406 15.542969 11.058594 C 16.996094 11.039062 18.203125 12.179688 18.273438 13.644531 C 18.324219 15.039062 17.113281 16.375 15.726562 16.457031 C 15.683594 16.457031 15.640625 16.457031 15.597656 16.457031 C 14.222656 16.457031 12.957031 15.191406 12.933594 13.757812 Z M 12.933594 13.757812 "/>
</g>
</svg>
